<?xml version="1.0" encoding="UTF-8" standalone="no"?>
<!-- Created with Inkscape (http://www.inkscape.org/) -->
<svg width="100mm" height="100mm" viewBox="0 0 100 100" version="1.1" id="svg1" xml:space="preserve" inkscape:version="1.4 (e7c3feb100, 2024-10-09)" sodipodi:docname="pomolite.svg" xmlns:inkscape="http://www.inkscape.org/namespaces/inkscape" xmlns:sodipodi="http://sodipodi.sourceforge.net/DTD/sodipodi-0.dtd" xmlns="http://www.w3.org/2000/svg" xmlns:svg="http://www.w3.org/2000/svg">
    <sodipodi:namedview id="namedview1" pagecolor="#ffffff" bordercolor="#000000" borderopacity="0.25" inkscape:showpageshadow="2" inkscape:pageopacity="0.0" inkscape:pagecheckerboard="0" inkscape:deskcolor="#d1d1d1" inkscape:document-units="mm" inkscape:zoom="1.1973064" inkscape:cx="113.5883" inkscape:cy="273.94826" inkscape:window-width="1920" inkscape:window-height="1122" inkscape:window-x="0" inkscape:window-y="48" inkscape:window-maximized="1" inkscape:current-layer="g3" />
    <defs id="defs1">
        <inkscape:path-effect effect="bspline" id="path-effect11" is_visible="true" lpeversion="1.3" weight="33.333333" steps="2" helper_size="0" apply_no_weight="true" apply_with_weight="true" only_selected="false" uniform="false" />
        <inkscape:path-effect effect="bspline" id="path-effect9" is_visible="true" lpeversion="1.3" weight="33.333333" steps="2" helper_size="0" apply_no_weight="true" apply_with_weight="true" only_selected="false" uniform="false" />
        <inkscape:path-effect effect="bspline" id="path-effect8" is_visible="true" lpeversion="1.3" weight="33.333333" steps="2" helper_size="0" apply_no_weight="true" apply_with_weight="true" only_selected="false" uniform="false" />
        <inkscape:path-effect effect="bspline" id="path-effect7" is_visible="true" lpeversion="1.3" weight="33.333333" steps="2" helper_size="0" apply_no_weight="true" apply_with_weight="true" only_selected="false" uniform="false" />
        <inkscape:path-effect effect="bspline" id="path-effect6" is_visible="true" lpeversion="1.3" weight="33.333333" steps="2" helper_size="0" apply_no_weight="true" apply_with_weight="true" only_selected="false" uniform="false" />
        <inkscape:path-effect effect="bspline" id="path-effect5" is_visible="true" lpeversion="1.3" weight="33.333333" steps="2" helper_size="0" apply_no_weight="true" apply_with_weight="true" only_selected="false" uniform="false" />
        <inkscape:path-effect effect="bspline" id="path-effect4" is_visible="true" lpeversion="1.3" weight="33.333333" steps="2" helper_size="0" apply_no_weight="true" apply_with_weight="true" only_selected="false" uniform="false" />
        <inkscape:path-effect effect="bspline" id="path-effect6-5" is_visible="true" lpeversion="1.3" weight="33.333333" steps="2" helper_size="0" apply_no_weight="true" apply_with_weight="true" only_selected="false" uniform="false" />
        <inkscape:path-effect effect="bspline" id="path-effect4-1" is_visible="true" lpeversion="1.3" weight="33.333333" steps="2" helper_size="0" apply_no_weight="true" apply_with_weight="true" only_selected="false" uniform="false" />
        <inkscape:path-effect effect="bspline" id="path-effect5-2" is_visible="true" lpeversion="1.3" weight="33.333333" steps="2" helper_size="0" apply_no_weight="true" apply_with_weight="true" only_selected="false" uniform="false" />
        <inkscape:path-effect effect="bspline" id="path-effect6-5-7" is_visible="true" lpeversion="1.3" weight="33.333333" steps="2" helper_size="0" apply_no_weight="true" apply_with_weight="true" only_selected="false" uniform="false" />
        <inkscape:path-effect effect="bspline" id="path-effect11-7" is_visible="true" lpeversion="1.3" weight="33.333333" steps="2" helper_size="0" apply_no_weight="true" apply_with_weight="true" only_selected="false" uniform="false" />
        <inkscape:path-effect effect="bspline" id="path-effect11-9" is_visible="true" lpeversion="1.3" weight="33.333333" steps="2" helper_size="0" apply_no_weight="true" apply_with_weight="true" only_selected="false" uniform="false" />
        <inkscape:path-effect effect="bspline" id="path-effect11-7-3" is_visible="true" lpeversion="1.3" weight="33.333333" steps="2" helper_size="0" apply_no_weight="true" apply_with_weight="true" only_selected="false" uniform="false" />
    </defs>
    <g inkscape:label="Layer 1" inkscape:groupmode="layer" id="layer1" transform="translate(-167.50855,49.377518)">
        <g id="g3" transform="matrix(2.0833333,0,0,2.0833333,53.362753,58.333978)">
            <rect style="fill:#000000;fill-opacity:1;stroke:none;stroke-width:0.138372" id="rect6" width="48" height="48" x="54.657394" y="-51.728035" />
            <path style="fill:#ffffff;fill-opacity:1;stroke:none;stroke-width:0.144" d="M 20.963255,10.789169 C 19.850698,10.289144 17.988102,9.4265996 15.981728,8.9890771 13.975354,8.5515546 11.825289,8.5390543 10.437712,8.6140598 9.0501343,8.6890653 8.4251151,8.8515703 8.2626096,8.7640623 8.1001041,8.6765543 8.4001134,8.3390439 9.4314336,7.8452623 10.462754,7.3514807 12.225308,6.7014609 13.725397,6.3514424 c 1.500089,-0.3500185 2.737628,-0.4000203 3.856445,-0.2625101 1.118817,0.1375102 2.118848,0.4625203 2.843889,0.7937908 0.725042,0.3312705 1.175056,0.6687811 1.481323,0.7125304 0.306267,0.043749 0.468772,-0.2062579 0.46877,-0.6750389 -2e-6,-0.468781 -0.162507,-1.1563017 -0.581285,-2.0876111 C 21.375761,3.9012941 20.700741,2.726258 20.138208,1.913712 19.575675,1.1011659 19.12566,0.65115112 18.969404,0.35738493 c -0.156256,-0.29376619 -0.01875,-0.43127029 0.45628,-0.38126514 0.475032,0.05000516 1.287558,0.28751243 2.218866,0.73129135 0.931308,0.44377896 1.98134,1.09379886 2.812639,1.91885146 0.831299,0.8250526 1.443817,1.8250833 1.793836,2.5376242 0.350018,0.7125408 0.437521,1.1375533 0.70629,1.2813093 0.268768,0.143756 0.718782,0.00625 1.537586,-0.1437577 0.818803,-0.1500094 2.00634,-0.3125145 3.337673,-0.2875111 1.331332,0.025003 2.806378,0.23751 3.825186,0.5687814 1.018807,0.3312714 1.581325,0.7812857 1.712579,1.0750519 0.131254,0.2937663 -0.168756,0.4312704 -0.743794,0.5125249 -0.575037,0.081254 -1.425065,0.1062557 -2.493882,0.3000193 -1.068818,0.1937637 -2.356357,0.5562743 -3.331413,1.0500555 -0.975056,0.4937817 -1.637577,1.1188017 -2.343871,1.4813207 -0.706293,0.36252 -1.456317,0.462522 -2.406376,0.512525 -0.95006,0.05 -2.100096,0.05 -2.856388,-0.01875 -0.756293,-0.06875 -1.118804,-0.206258 -2.23136,-0.706284 z" id="path6" inkscape:path-effect="#path-effect6-5-7" inkscape:original-d="M 21.713293,11.151688 C 19.850698,10.289144 17.988102,9.4266002 16.125507,8.5640555 13.975354,8.5515587 11.825289,8.5390543 9.6751788,8.5265537 9.0501343,8.6890654 8.4251152,8.8515708 7.8000822,9.0140788 8.1001045,8.6765547 8.400114,8.3390445 8.7001287,8.0015268 10.462754,7.3514811 12.225308,6.7014608 13.987898,6.0514278 c 1.237588,-0.050004 2.475127,-0.1000061 3.71269,-0.1500086 1.000071,0.3250235 2.000102,0.650033 3.000153,0.9750502 0.450032,0.3375241 0.900046,0.6750342 1.350068,1.0125519 C 22.213321,7.6390028 22.375826,7.3889956 22.538334,7.1389834 22.375823,6.4514334 22.213319,5.7639125 22.050809,5.0763777 21.375762,3.9012937 20.700741,2.726258 20.025707,1.5511981 19.575675,1.101166 19.12566,0.65115162 18.675638,0.20112839 c 0.13751,-0.13750925 0.275014,-0.27501342 0.41252,-0.41252013 0.812558,0.23751667 1.625084,0.47502318 2.437626,0.71253604 1.050074,0.6500457 2.100106,1.300066 3.15016,1.950099 0.612544,1.0000716 1.225062,2.0001026 1.837593,3.000154 0.08751,0.4250296 0.17501,0.8500427 0.262514,1.2750647 0.450032,-0.1375105 0.900046,-0.2750146 1.350069,-0.4125214 1.187584,-0.1625117 2.375121,-0.3250171 3.562681,-0.487525 1.475105,0.2125154 2.950151,0.425022 4.425226,0.6375324 0.56254,0.4500321 1.125058,0.9000464 1.687587,1.3500697 -0.300021,0.1375092 -0.600031,0.2750134 -0.900047,0.4125201 -0.850059,0.025003 -1.700087,0.050002 -2.550129,0.075005 -1.287593,0.3625253 -2.575132,0.7250367 -3.862698,1.0875544 -0.662546,0.6250448 -1.325067,1.2500648 -1.987601,1.8750968 -0.750053,0.100006 -1.500077,0.200009 -2.250115,0.300014 -1.150081,0 -2.300117,0 -3.450176,0 -0.362526,-0.137509 -0.725037,-0.275013 -1.087555,-0.41252 z" transform="matrix(0.48124815,0,0,0.48124533,67.816208,-39.685177)" />
            <path style="fill:#ffffff;fill-opacity:1;stroke:none;stroke-width:0.144" d="m 68.765121,-27.369476 c 0.176569,-1.314562 0.698076,-2.242668 1.462685,-3.016112 0.764608,-0.773443 1.772266,-1.392181 2.762276,-1.692716 0.99001,-0.300536 1.962312,-0.282856 2.665039,-0.167942 0.702728,0.114913 1.135844,0.327052 1.670627,0.446382 0.534783,0.11933 1.171199,0.145846 1.794375,0.04419 0.623176,-0.101655 1.233074,-0.331472 1.825312,-0.441962 0.592237,-0.110491 1.166781,-0.101651 1.772278,0.05304 0.605497,0.154691 1.241913,0.45522 1.820892,0.923709 0.578978,0.468489 1.100486,1.104905 1.462898,1.878351 0.362413,0.773447 0.565712,1.683876 0.658525,2.589912 0.09281,0.906035 0.07514,1.807623 -0.04861,2.616425 -0.123751,0.808803 -0.353568,1.52477 -0.671786,2.262858 -0.318218,0.738088 -0.724808,1.498236 -1.246337,2.119209 -0.52153,0.620973 -1.157932,1.102694 -1.827521,1.48942 -0.66959,0.386726 -1.372286,0.678411 -2.490477,0.866249 -1.118191,0.187838 -2.651777,0.271809 -4.09678,0.133475 -1.445004,-0.138334 -2.801315,-0.498955 -3.796918,-1.060797 -0.995604,-0.561841 -1.630383,-1.324839 -2.162972,-2.079578 -0.532588,-0.75474 -0.962925,-1.501135 -1.262294,-2.724783 -0.29937,-1.223647 -0.467775,-2.92477 -0.291207,-4.239332 z" id="path7" inkscape:path-effect="#path-effect7" inkscape:original-d="m 68.420161,-27.755894 c 0.521529,-0.928144 1.043036,-1.85625 1.564554,-2.784374 1.007699,-0.618764 2.015357,-1.237501 3.023036,-1.856252 0.972341,0.01768 1.944643,0.03536 2.916964,0.05304 0.433134,0.212147 0.86625,0.424285 1.299375,0.636429 0.636441,0.02652 1.272857,0.05303 1.909286,0.07955 0.609923,-0.229826 1.219821,-0.459643 1.829732,-0.689464 0.574565,0.0088 1.149108,0.01768 1.723661,0.02652 0.636441,0.300542 1.272857,0.601072 1.909286,0.901607 0.521528,0.636442 1.043036,1.272858 1.564554,1.909287 0.203306,0.910464 0.406607,1.820893 0.609909,2.731339 -0.01768,0.901625 -0.03536,1.803213 -0.05303,2.704821 -0.229825,0.715997 -0.459643,1.431964 -0.689464,2.147947 -0.406615,0.760193 -0.813205,1.520341 -1.219821,2.280536 -0.636443,0.481751 -1.272845,0.963471 -1.909286,1.445222 -0.702738,0.291702 -1.405434,0.583387 -2.108171,0.875089 -1.533645,0.08397 -3.067231,0.167945 -4.600848,0.251918 -1.35639,-0.360641 -2.712701,-0.721262 -4.069091,-1.081903 -0.634817,-0.763042 -1.269596,-1.52604 -1.904413,-2.289083 -0.43036,-0.746436 -0.860697,-1.492831 -1.291056,-2.239265 -0.19712,-1.698016 -0.344864,-3.401184 -0.505177,-5.102964 z" transform="matrix(1.2217298,0,0,1.2217227,-16.145802,5.3076191)" sodipodi:nodetypes="ccccccccccccccccccccc" />
        </g>
    </g>
</svg>
